<mxfile host="app.diagrams.net" modified="2024-06-07T19:14:53.206Z" agent="Mozilla/5.0 (X11; Ubuntu; Linux x86_64; rv:109.0) Gecko/20100101 Firefox/113.0" etag="4hwRfvAJ_IB3ihS2THQd" version="24.5.2" type="github" pages="2">
  <diagram name="Page-1" id="0apLzvxpYidQi_YY-8t9">
    <mxGraphModel dx="1016" dy="1704" grid="1" gridSize="10" guides="1" tooltips="1" connect="1" arrows="1" fold="1" page="1" pageScale="1" pageWidth="850" pageHeight="1100" math="0" shadow="0">
      <root>
        <mxCell id="0" />
        <mxCell id="1" parent="0" />
        <mxCell id="mZ65AMoEYcW4n1ilk7vc-45" value="" style="rounded=1;whiteSpace=wrap;html=1;fillColor=#E8EDFF;dashed=1;strokeWidth=2;" vertex="1" parent="1">
          <mxGeometry x="415" y="425.25" width="590" height="250" as="geometry" />
        </mxCell>
        <mxCell id="mZ65AMoEYcW4n1ilk7vc-66" value="" style="rounded=1;whiteSpace=wrap;html=1;fillColor=#E8EDFF;dashed=1;strokeWidth=2;strokeColor=#000000;" vertex="1" parent="1">
          <mxGeometry x="400" y="-70" width="650" height="260" as="geometry" />
        </mxCell>
        <mxCell id="mZ65AMoEYcW4n1ilk7vc-1" value="" style="ellipse;whiteSpace=wrap;html=1;aspect=fixed;fillColor=#000000;" vertex="1" parent="1">
          <mxGeometry x="300" y="190" width="60" height="60" as="geometry" />
        </mxCell>
        <mxCell id="mZ65AMoEYcW4n1ilk7vc-2" value="" style="endArrow=none;html=1;rounded=0;strokeColor=#FFFFFF;strokeWidth=8;" edge="1" parent="1">
          <mxGeometry width="50" height="50" relative="1" as="geometry">
            <mxPoint x="315" y="205" as="sourcePoint" />
            <mxPoint x="345" y="235" as="targetPoint" />
          </mxGeometry>
        </mxCell>
        <mxCell id="mZ65AMoEYcW4n1ilk7vc-3" value="" style="endArrow=none;html=1;rounded=0;strokeColor=#FFFFFF;strokeWidth=8;" edge="1" parent="1">
          <mxGeometry width="50" height="50" relative="1" as="geometry">
            <mxPoint x="315" y="235" as="sourcePoint" />
            <mxPoint x="345" y="205" as="targetPoint" />
          </mxGeometry>
        </mxCell>
        <mxCell id="mZ65AMoEYcW4n1ilk7vc-4" value="" style="ellipse;whiteSpace=wrap;html=1;aspect=fixed;fillColor=#000000;" vertex="1" parent="1">
          <mxGeometry x="300" y="350" width="60" height="60" as="geometry" />
        </mxCell>
        <mxCell id="mZ65AMoEYcW4n1ilk7vc-5" value="" style="endArrow=none;html=1;rounded=0;strokeColor=#FFFFFF;strokeWidth=8;" edge="1" parent="1">
          <mxGeometry width="50" height="50" relative="1" as="geometry">
            <mxPoint x="315" y="365" as="sourcePoint" />
            <mxPoint x="345" y="395" as="targetPoint" />
          </mxGeometry>
        </mxCell>
        <mxCell id="mZ65AMoEYcW4n1ilk7vc-6" value="" style="endArrow=none;html=1;rounded=0;strokeColor=#FFFFFF;strokeWidth=8;" edge="1" parent="1">
          <mxGeometry width="50" height="50" relative="1" as="geometry">
            <mxPoint x="315" y="395" as="sourcePoint" />
            <mxPoint x="345" y="365" as="targetPoint" />
          </mxGeometry>
        </mxCell>
        <mxCell id="mZ65AMoEYcW4n1ilk7vc-7" value="" style="ellipse;whiteSpace=wrap;html=1;aspect=fixed;fillColor=#000000;" vertex="1" parent="1">
          <mxGeometry x="450" y="-50" width="60" height="60" as="geometry" />
        </mxCell>
        <mxCell id="mZ65AMoEYcW4n1ilk7vc-8" value="" style="endArrow=none;html=1;rounded=0;strokeColor=#FFFFFF;strokeWidth=8;" edge="1" parent="1">
          <mxGeometry width="50" height="50" relative="1" as="geometry">
            <mxPoint x="465" y="-35" as="sourcePoint" />
            <mxPoint x="495" y="-5" as="targetPoint" />
          </mxGeometry>
        </mxCell>
        <mxCell id="mZ65AMoEYcW4n1ilk7vc-9" value="" style="endArrow=none;html=1;rounded=0;strokeColor=#FFFFFF;strokeWidth=8;" edge="1" parent="1">
          <mxGeometry width="50" height="50" relative="1" as="geometry">
            <mxPoint x="465" y="-5" as="sourcePoint" />
            <mxPoint x="495" y="-35" as="targetPoint" />
          </mxGeometry>
        </mxCell>
        <mxCell id="mZ65AMoEYcW4n1ilk7vc-10" value="" style="ellipse;whiteSpace=wrap;html=1;aspect=fixed;fillColor=#000000;" vertex="1" parent="1">
          <mxGeometry x="450" y="110" width="60" height="60" as="geometry" />
        </mxCell>
        <mxCell id="mZ65AMoEYcW4n1ilk7vc-11" value="" style="endArrow=none;html=1;rounded=0;strokeColor=#FFFFFF;strokeWidth=8;" edge="1" parent="1">
          <mxGeometry width="50" height="50" relative="1" as="geometry">
            <mxPoint x="465" y="125" as="sourcePoint" />
            <mxPoint x="495" y="155" as="targetPoint" />
          </mxGeometry>
        </mxCell>
        <mxCell id="mZ65AMoEYcW4n1ilk7vc-12" value="" style="endArrow=none;html=1;rounded=0;strokeColor=#FFFFFF;strokeWidth=8;" edge="1" parent="1">
          <mxGeometry width="50" height="50" relative="1" as="geometry">
            <mxPoint x="465" y="155" as="sourcePoint" />
            <mxPoint x="495" y="125" as="targetPoint" />
          </mxGeometry>
        </mxCell>
        <mxCell id="mZ65AMoEYcW4n1ilk7vc-13" value="" style="ellipse;whiteSpace=wrap;html=1;aspect=fixed;fillColor=#000000;" vertex="1" parent="1">
          <mxGeometry x="450" y="440" width="60" height="60" as="geometry" />
        </mxCell>
        <mxCell id="mZ65AMoEYcW4n1ilk7vc-14" value="" style="endArrow=none;html=1;rounded=0;strokeColor=#FFFFFF;strokeWidth=8;" edge="1" parent="1">
          <mxGeometry width="50" height="50" relative="1" as="geometry">
            <mxPoint x="465" y="455" as="sourcePoint" />
            <mxPoint x="495" y="485" as="targetPoint" />
          </mxGeometry>
        </mxCell>
        <mxCell id="mZ65AMoEYcW4n1ilk7vc-15" value="" style="endArrow=none;html=1;rounded=0;strokeColor=#FFFFFF;strokeWidth=8;" edge="1" parent="1">
          <mxGeometry width="50" height="50" relative="1" as="geometry">
            <mxPoint x="465" y="485" as="sourcePoint" />
            <mxPoint x="495" y="455" as="targetPoint" />
          </mxGeometry>
        </mxCell>
        <mxCell id="mZ65AMoEYcW4n1ilk7vc-16" value="" style="ellipse;whiteSpace=wrap;html=1;aspect=fixed;fillColor=#000000;" vertex="1" parent="1">
          <mxGeometry x="450" y="600" width="60" height="60" as="geometry" />
        </mxCell>
        <mxCell id="mZ65AMoEYcW4n1ilk7vc-17" value="" style="endArrow=none;html=1;rounded=0;strokeColor=#FFFFFF;strokeWidth=8;" edge="1" parent="1">
          <mxGeometry width="50" height="50" relative="1" as="geometry">
            <mxPoint x="465" y="615" as="sourcePoint" />
            <mxPoint x="495" y="645" as="targetPoint" />
          </mxGeometry>
        </mxCell>
        <mxCell id="mZ65AMoEYcW4n1ilk7vc-18" value="" style="endArrow=none;html=1;rounded=0;strokeColor=#FFFFFF;strokeWidth=8;" edge="1" parent="1">
          <mxGeometry width="50" height="50" relative="1" as="geometry">
            <mxPoint x="465" y="645" as="sourcePoint" />
            <mxPoint x="495" y="615" as="targetPoint" />
          </mxGeometry>
        </mxCell>
        <mxCell id="mZ65AMoEYcW4n1ilk7vc-19" value="" style="rounded=0;whiteSpace=wrap;html=1;strokeWidth=3;fillColor=#FFFFFF;" vertex="1" parent="1">
          <mxGeometry x="590" y="-50" width="120" height="60" as="geometry" />
        </mxCell>
        <mxCell id="mZ65AMoEYcW4n1ilk7vc-20" value="" style="rounded=0;whiteSpace=wrap;html=1;strokeWidth=3;" vertex="1" parent="1">
          <mxGeometry x="590" y="110" width="120" height="60" as="geometry" />
        </mxCell>
        <mxCell id="mZ65AMoEYcW4n1ilk7vc-21" value="" style="rounded=0;whiteSpace=wrap;html=1;strokeWidth=3;fillColor=#FFFFFF;" vertex="1" parent="1">
          <mxGeometry x="790" y="-50" width="120" height="60" as="geometry" />
        </mxCell>
        <mxCell id="mZ65AMoEYcW4n1ilk7vc-22" value="" style="rounded=0;whiteSpace=wrap;html=1;strokeWidth=3;" vertex="1" parent="1">
          <mxGeometry x="790" y="110" width="120" height="60" as="geometry" />
        </mxCell>
        <mxCell id="mZ65AMoEYcW4n1ilk7vc-23" value="" style="ellipse;whiteSpace=wrap;html=1;aspect=fixed;fillColor=#000000;" vertex="1" parent="1">
          <mxGeometry x="980" y="30" width="60" height="60" as="geometry" />
        </mxCell>
        <mxCell id="mZ65AMoEYcW4n1ilk7vc-26" value="" style="rounded=0;whiteSpace=wrap;html=1;strokeWidth=3;" vertex="1" parent="1">
          <mxGeometry x="647" y="40" width="180" height="40" as="geometry" />
        </mxCell>
        <mxCell id="mZ65AMoEYcW4n1ilk7vc-27" value="" style="rounded=0;whiteSpace=wrap;html=1;strokeWidth=3;" vertex="1" parent="1">
          <mxGeometry x="650" y="440" width="120" height="60" as="geometry" />
        </mxCell>
        <mxCell id="mZ65AMoEYcW4n1ilk7vc-28" value="" style="rounded=0;whiteSpace=wrap;html=1;strokeWidth=3;" vertex="1" parent="1">
          <mxGeometry x="650" y="600" width="120" height="60" as="geometry" />
        </mxCell>
        <mxCell id="mZ65AMoEYcW4n1ilk7vc-29" value="" style="ellipse;whiteSpace=wrap;html=1;aspect=fixed;fillColor=#000000;" vertex="1" parent="1">
          <mxGeometry x="920" y="520" width="60" height="60" as="geometry" />
        </mxCell>
        <mxCell id="mZ65AMoEYcW4n1ilk7vc-32" value="" style="rounded=0;whiteSpace=wrap;html=1;strokeWidth=3;" vertex="1" parent="1">
          <mxGeometry x="780" y="520" width="80" height="60" as="geometry" />
        </mxCell>
        <mxCell id="mZ65AMoEYcW4n1ilk7vc-33" value="" style="rounded=0;whiteSpace=wrap;html=1;strokeWidth=3;" vertex="1" parent="1">
          <mxGeometry x="630" y="520" width="80" height="60" as="geometry" />
        </mxCell>
        <mxCell id="mZ65AMoEYcW4n1ilk7vc-34" value="" style="endArrow=classic;html=1;rounded=0;entryX=0;entryY=0.5;entryDx=0;entryDy=0;exitX=1;exitY=0.5;exitDx=0;exitDy=0;strokeWidth=3;" edge="1" parent="1" source="mZ65AMoEYcW4n1ilk7vc-13" target="mZ65AMoEYcW4n1ilk7vc-27">
          <mxGeometry width="50" height="50" relative="1" as="geometry">
            <mxPoint x="420" y="520" as="sourcePoint" />
            <mxPoint x="620" y="480" as="targetPoint" />
          </mxGeometry>
        </mxCell>
        <mxCell id="mZ65AMoEYcW4n1ilk7vc-35" value="" style="endArrow=classic;html=1;rounded=0;entryX=0;entryY=0.5;entryDx=0;entryDy=0;exitX=1;exitY=0.5;exitDx=0;exitDy=0;strokeWidth=3;" edge="1" parent="1">
          <mxGeometry width="50" height="50" relative="1" as="geometry">
            <mxPoint x="510" y="629.66" as="sourcePoint" />
            <mxPoint x="650" y="629.66" as="targetPoint" />
          </mxGeometry>
        </mxCell>
        <mxCell id="mZ65AMoEYcW4n1ilk7vc-36" value="&lt;font face=&quot;Times New Roman&quot;&gt;&lt;b&gt;90&lt;span style=&quot;font-size: 10px;&quot;&gt;&lt;sup&gt;o&lt;/sup&gt;&lt;/span&gt;&lt;/b&gt;&lt;/font&gt;" style="rounded=0;whiteSpace=wrap;html=1;strokeWidth=3;" vertex="1" parent="1">
          <mxGeometry x="465" y="570" width="30" height="15" as="geometry" />
        </mxCell>
        <mxCell id="mZ65AMoEYcW4n1ilk7vc-37" value="" style="endArrow=classic;startArrow=classic;html=1;rounded=0;exitX=0.5;exitY=0;exitDx=0;exitDy=0;entryX=0.5;entryY=1;entryDx=0;entryDy=0;strokeWidth=3;" edge="1" parent="1" source="mZ65AMoEYcW4n1ilk7vc-36" target="mZ65AMoEYcW4n1ilk7vc-13">
          <mxGeometry width="50" height="50" relative="1" as="geometry">
            <mxPoint x="420" y="520" as="sourcePoint" />
            <mxPoint x="470" y="470" as="targetPoint" />
          </mxGeometry>
        </mxCell>
        <mxCell id="mZ65AMoEYcW4n1ilk7vc-38" value="" style="endArrow=none;html=1;rounded=0;exitX=-0.028;exitY=0.415;exitDx=0;exitDy=0;exitPerimeter=0;strokeWidth=3;" edge="1" parent="1" source="mZ65AMoEYcW4n1ilk7vc-33">
          <mxGeometry width="50" height="50" relative="1" as="geometry">
            <mxPoint x="420" y="520" as="sourcePoint" />
            <mxPoint x="480" y="545" as="targetPoint" />
          </mxGeometry>
        </mxCell>
        <mxCell id="mZ65AMoEYcW4n1ilk7vc-39" value="" style="endArrow=classic;html=1;rounded=0;entryX=0.5;entryY=0;entryDx=0;entryDy=0;exitX=0.5;exitY=1;exitDx=0;exitDy=0;strokeWidth=2;" edge="1" parent="1" source="mZ65AMoEYcW4n1ilk7vc-36" target="mZ65AMoEYcW4n1ilk7vc-16">
          <mxGeometry width="50" height="50" relative="1" as="geometry">
            <mxPoint x="450" y="650" as="sourcePoint" />
            <mxPoint x="500" y="600" as="targetPoint" />
          </mxGeometry>
        </mxCell>
        <mxCell id="mZ65AMoEYcW4n1ilk7vc-40" value="" style="endArrow=classic;html=1;rounded=0;exitX=1;exitY=0.5;exitDx=0;exitDy=0;strokeWidth=3;" edge="1" parent="1" source="mZ65AMoEYcW4n1ilk7vc-27">
          <mxGeometry width="50" height="50" relative="1" as="geometry">
            <mxPoint x="360" y="560" as="sourcePoint" />
            <mxPoint x="1040.8888753255208" y="470" as="targetPoint" />
          </mxGeometry>
        </mxCell>
        <mxCell id="mZ65AMoEYcW4n1ilk7vc-41" value="" style="edgeStyle=segmentEdgeStyle;endArrow=classic;html=1;curved=0;rounded=0;endSize=8;startSize=8;entryX=0.5;entryY=1;entryDx=0;entryDy=0;strokeWidth=3;" edge="1" parent="1" target="mZ65AMoEYcW4n1ilk7vc-29">
          <mxGeometry width="50" height="50" relative="1" as="geometry">
            <mxPoint x="770" y="635" as="sourcePoint" />
            <mxPoint x="820" y="585" as="targetPoint" />
          </mxGeometry>
        </mxCell>
        <mxCell id="mZ65AMoEYcW4n1ilk7vc-42" value="" style="endArrow=classic;html=1;rounded=0;entryX=0.5;entryY=0;entryDx=0;entryDy=0;strokeWidth=3;" edge="1" parent="1" target="mZ65AMoEYcW4n1ilk7vc-29">
          <mxGeometry width="50" height="50" relative="1" as="geometry">
            <mxPoint x="950" y="470" as="sourcePoint" />
            <mxPoint x="580" y="510" as="targetPoint" />
          </mxGeometry>
        </mxCell>
        <mxCell id="mZ65AMoEYcW4n1ilk7vc-43" value="" style="endArrow=classic;html=1;rounded=0;exitX=0;exitY=0.5;exitDx=0;exitDy=0;entryX=1;entryY=0.5;entryDx=0;entryDy=0;strokeWidth=3;" edge="1" parent="1" source="mZ65AMoEYcW4n1ilk7vc-29" target="mZ65AMoEYcW4n1ilk7vc-32">
          <mxGeometry width="50" height="50" relative="1" as="geometry">
            <mxPoint x="530" y="560" as="sourcePoint" />
            <mxPoint x="580" y="510" as="targetPoint" />
          </mxGeometry>
        </mxCell>
        <mxCell id="mZ65AMoEYcW4n1ilk7vc-44" value="" style="endArrow=classic;html=1;rounded=0;exitX=0;exitY=0.5;exitDx=0;exitDy=0;entryX=1;entryY=0.5;entryDx=0;entryDy=0;strokeWidth=3;" edge="1" parent="1" source="mZ65AMoEYcW4n1ilk7vc-32" target="mZ65AMoEYcW4n1ilk7vc-33">
          <mxGeometry width="50" height="50" relative="1" as="geometry">
            <mxPoint x="530" y="560" as="sourcePoint" />
            <mxPoint x="580" y="510" as="targetPoint" />
          </mxGeometry>
        </mxCell>
        <mxCell id="mZ65AMoEYcW4n1ilk7vc-46" value="" style="endArrow=classic;html=1;rounded=0;exitX=1;exitY=0.5;exitDx=0;exitDy=0;entryX=0;entryY=0.5;entryDx=0;entryDy=0;strokeWidth=3;" edge="1" parent="1" source="mZ65AMoEYcW4n1ilk7vc-7" target="mZ65AMoEYcW4n1ilk7vc-19">
          <mxGeometry width="50" height="50" relative="1" as="geometry">
            <mxPoint x="690" y="140" as="sourcePoint" />
            <mxPoint x="740" y="90" as="targetPoint" />
          </mxGeometry>
        </mxCell>
        <mxCell id="mZ65AMoEYcW4n1ilk7vc-47" value="" style="endArrow=classic;html=1;rounded=0;exitX=1;exitY=0.5;exitDx=0;exitDy=0;entryX=0;entryY=0.5;entryDx=0;entryDy=0;strokeWidth=3;" edge="1" parent="1">
          <mxGeometry width="50" height="50" relative="1" as="geometry">
            <mxPoint x="510" y="139.55" as="sourcePoint" />
            <mxPoint x="590" y="139.55" as="targetPoint" />
          </mxGeometry>
        </mxCell>
        <mxCell id="mZ65AMoEYcW4n1ilk7vc-48" value="" style="endArrow=classic;html=1;rounded=0;exitX=1;exitY=0.5;exitDx=0;exitDy=0;entryX=0;entryY=0.5;entryDx=0;entryDy=0;strokeWidth=3;" edge="1" parent="1" source="mZ65AMoEYcW4n1ilk7vc-19" target="mZ65AMoEYcW4n1ilk7vc-21">
          <mxGeometry width="50" height="50" relative="1" as="geometry">
            <mxPoint x="690" y="140" as="sourcePoint" />
            <mxPoint x="740" y="90" as="targetPoint" />
          </mxGeometry>
        </mxCell>
        <mxCell id="mZ65AMoEYcW4n1ilk7vc-49" value="" style="endArrow=classic;html=1;rounded=0;exitX=1;exitY=0.5;exitDx=0;exitDy=0;entryX=0;entryY=0.5;entryDx=0;entryDy=0;strokeWidth=3;" edge="1" parent="1">
          <mxGeometry width="50" height="50" relative="1" as="geometry">
            <mxPoint x="710" y="139.55" as="sourcePoint" />
            <mxPoint x="790" y="139.55" as="targetPoint" />
          </mxGeometry>
        </mxCell>
        <mxCell id="mZ65AMoEYcW4n1ilk7vc-50" value="" style="edgeStyle=segmentEdgeStyle;endArrow=classic;html=1;curved=0;rounded=0;endSize=8;startSize=8;entryX=0.5;entryY=1;entryDx=0;entryDy=0;strokeWidth=3;" edge="1" parent="1" target="mZ65AMoEYcW4n1ilk7vc-23">
          <mxGeometry width="50" height="50" relative="1" as="geometry">
            <mxPoint x="910" y="140" as="sourcePoint" />
            <mxPoint x="960" y="90" as="targetPoint" />
          </mxGeometry>
        </mxCell>
        <mxCell id="mZ65AMoEYcW4n1ilk7vc-51" value="" style="edgeStyle=segmentEdgeStyle;endArrow=classic;html=1;curved=0;rounded=0;endSize=8;startSize=8;entryX=0.5;entryY=0;entryDx=0;entryDy=0;strokeWidth=3;" edge="1" parent="1" target="mZ65AMoEYcW4n1ilk7vc-23">
          <mxGeometry width="50" height="50" relative="1" as="geometry">
            <mxPoint x="910" y="-20" as="sourcePoint" />
            <mxPoint x="1010" y="-70" as="targetPoint" />
          </mxGeometry>
        </mxCell>
        <mxCell id="mZ65AMoEYcW4n1ilk7vc-52" value="" style="endArrow=classic;html=1;rounded=0;entryX=1;entryY=0.5;entryDx=0;entryDy=0;exitX=0;exitY=0.5;exitDx=0;exitDy=0;strokeWidth=3;" edge="1" parent="1" source="mZ65AMoEYcW4n1ilk7vc-23" target="mZ65AMoEYcW4n1ilk7vc-26">
          <mxGeometry width="50" height="50" relative="1" as="geometry">
            <mxPoint x="690" y="140" as="sourcePoint" />
            <mxPoint x="740" y="90" as="targetPoint" />
          </mxGeometry>
        </mxCell>
        <mxCell id="mZ65AMoEYcW4n1ilk7vc-53" value="" style="edgeStyle=elbowEdgeStyle;elbow=horizontal;endArrow=classic;html=1;curved=0;rounded=0;endSize=8;startSize=8;entryX=1;entryY=0.5;entryDx=0;entryDy=0;strokeWidth=3;exitX=0;exitY=0.5;exitDx=0;exitDy=0;" edge="1" parent="1" source="mZ65AMoEYcW4n1ilk7vc-26" target="mZ65AMoEYcW4n1ilk7vc-4">
          <mxGeometry width="50" height="50" relative="1" as="geometry">
            <mxPoint x="620" y="60" as="sourcePoint" />
            <mxPoint x="414" y="220" as="targetPoint" />
            <Array as="points">
              <mxPoint x="420" y="140" />
            </Array>
          </mxGeometry>
        </mxCell>
        <mxCell id="mZ65AMoEYcW4n1ilk7vc-54" value="" style="edgeStyle=segmentEdgeStyle;endArrow=classic;html=1;curved=0;rounded=0;endSize=8;startSize=8;entryX=0.5;entryY=1;entryDx=0;entryDy=0;exitX=0;exitY=0.25;exitDx=0;exitDy=0;strokeWidth=3;" edge="1" parent="1" source="mZ65AMoEYcW4n1ilk7vc-26" target="mZ65AMoEYcW4n1ilk7vc-7">
          <mxGeometry width="50" height="50" relative="1" as="geometry">
            <mxPoint x="460" y="130" as="sourcePoint" />
            <mxPoint x="510" y="80" as="targetPoint" />
          </mxGeometry>
        </mxCell>
        <mxCell id="mZ65AMoEYcW4n1ilk7vc-55" value="" style="edgeStyle=segmentEdgeStyle;endArrow=classic;html=1;curved=0;rounded=0;endSize=8;startSize=8;entryX=0.5;entryY=0;entryDx=0;entryDy=0;exitX=0;exitY=0.25;exitDx=0;exitDy=0;strokeWidth=3;" edge="1" parent="1" target="mZ65AMoEYcW4n1ilk7vc-10">
          <mxGeometry width="50" height="50" relative="1" as="geometry">
            <mxPoint x="647" y="70" as="sourcePoint" />
            <mxPoint x="480" y="30" as="targetPoint" />
          </mxGeometry>
        </mxCell>
        <mxCell id="mZ65AMoEYcW4n1ilk7vc-56" value="" style="endArrow=none;html=1;rounded=0;strokeWidth=3;" edge="1" parent="1">
          <mxGeometry width="50" height="50" relative="1" as="geometry">
            <mxPoint x="390" y="140" as="sourcePoint" />
            <mxPoint x="390" y="-20" as="targetPoint" />
          </mxGeometry>
        </mxCell>
        <mxCell id="mZ65AMoEYcW4n1ilk7vc-57" value="" style="endArrow=classic;html=1;rounded=0;entryX=0;entryY=0.5;entryDx=0;entryDy=0;strokeWidth=3;" edge="1" parent="1" target="mZ65AMoEYcW4n1ilk7vc-10">
          <mxGeometry width="50" height="50" relative="1" as="geometry">
            <mxPoint x="390" y="140" as="sourcePoint" />
            <mxPoint x="510" y="80" as="targetPoint" />
          </mxGeometry>
        </mxCell>
        <mxCell id="mZ65AMoEYcW4n1ilk7vc-58" value="" style="endArrow=classic;html=1;rounded=0;entryX=0;entryY=0.5;entryDx=0;entryDy=0;strokeWidth=3;" edge="1" parent="1">
          <mxGeometry width="50" height="50" relative="1" as="geometry">
            <mxPoint x="390" y="-20.400000000000006" as="sourcePoint" />
            <mxPoint x="450" y="-20.400000000000006" as="targetPoint" />
          </mxGeometry>
        </mxCell>
        <mxCell id="mZ65AMoEYcW4n1ilk7vc-59" value="" style="edgeStyle=segmentEdgeStyle;endArrow=classic;html=1;curved=0;rounded=0;endSize=8;startSize=8;exitX=0.5;exitY=0;exitDx=0;exitDy=0;strokeWidth=3;" edge="1" parent="1" source="mZ65AMoEYcW4n1ilk7vc-1">
          <mxGeometry width="50" height="50" relative="1" as="geometry">
            <mxPoint x="240" y="140" as="sourcePoint" />
            <mxPoint x="390" y="59.6" as="targetPoint" />
            <Array as="points">
              <mxPoint x="330" y="60" />
            </Array>
          </mxGeometry>
        </mxCell>
        <mxCell id="mZ65AMoEYcW4n1ilk7vc-60" value="" style="endArrow=classic;startArrow=classic;html=1;rounded=0;exitX=0.5;exitY=0;exitDx=0;exitDy=0;entryX=0.5;entryY=1;entryDx=0;entryDy=0;strokeWidth=3;" edge="1" parent="1" source="mZ65AMoEYcW4n1ilk7vc-4" target="mZ65AMoEYcW4n1ilk7vc-1">
          <mxGeometry width="50" height="50" relative="1" as="geometry">
            <mxPoint x="490" y="270" as="sourcePoint" />
            <mxPoint x="540" y="220" as="targetPoint" />
          </mxGeometry>
        </mxCell>
        <mxCell id="mZ65AMoEYcW4n1ilk7vc-61" value="" style="endArrow=none;html=1;rounded=0;strokeWidth=3;" edge="1" parent="1">
          <mxGeometry width="50" height="50" relative="1" as="geometry">
            <mxPoint x="390" y="629.49" as="sourcePoint" />
            <mxPoint x="390" y="469.49" as="targetPoint" />
          </mxGeometry>
        </mxCell>
        <mxCell id="mZ65AMoEYcW4n1ilk7vc-62" value="" style="endArrow=classic;html=1;rounded=0;entryX=0;entryY=0.5;entryDx=0;entryDy=0;strokeWidth=3;" edge="1" parent="1">
          <mxGeometry width="50" height="50" relative="1" as="geometry">
            <mxPoint x="390" y="629.49" as="sourcePoint" />
            <mxPoint x="450" y="629.49" as="targetPoint" />
          </mxGeometry>
        </mxCell>
        <mxCell id="mZ65AMoEYcW4n1ilk7vc-63" value="" style="endArrow=classic;html=1;rounded=0;entryX=0;entryY=0.5;entryDx=0;entryDy=0;strokeWidth=3;" edge="1" parent="1">
          <mxGeometry width="50" height="50" relative="1" as="geometry">
            <mxPoint x="390" y="469.09000000000003" as="sourcePoint" />
            <mxPoint x="450" y="469.09000000000003" as="targetPoint" />
          </mxGeometry>
        </mxCell>
        <mxCell id="mZ65AMoEYcW4n1ilk7vc-64" value="" style="edgeStyle=segmentEdgeStyle;endArrow=classic;html=1;curved=0;rounded=0;endSize=8;startSize=8;exitX=0.5;exitY=1;exitDx=0;exitDy=0;strokeWidth=3;" edge="1" parent="1" source="mZ65AMoEYcW4n1ilk7vc-4">
          <mxGeometry width="50" height="50" relative="1" as="geometry">
            <mxPoint x="420" y="320" as="sourcePoint" />
            <mxPoint x="390" y="550" as="targetPoint" />
            <Array as="points">
              <mxPoint x="330" y="550" />
            </Array>
          </mxGeometry>
        </mxCell>
        <mxCell id="mZ65AMoEYcW4n1ilk7vc-65" value="" style="edgeStyle=elbowEdgeStyle;elbow=horizontal;endArrow=classic;html=1;curved=0;rounded=0;endSize=8;startSize=8;entryX=1;entryY=0.5;entryDx=0;entryDy=0;strokeWidth=3;" edge="1" parent="1" target="mZ65AMoEYcW4n1ilk7vc-1">
          <mxGeometry width="50" height="50" relative="1" as="geometry">
            <mxPoint x="480" y="545" as="sourcePoint" />
            <mxPoint x="500" y="320" as="targetPoint" />
            <Array as="points">
              <mxPoint x="400" y="380" />
            </Array>
          </mxGeometry>
        </mxCell>
        <mxCell id="mZ65AMoEYcW4n1ilk7vc-67" value="" style="endArrow=classic;html=1;rounded=0;strokeWidth=3;" edge="1" parent="1">
          <mxGeometry width="50" height="50" relative="1" as="geometry">
            <mxPoint x="230" y="300" as="sourcePoint" />
            <mxPoint x="330" y="300" as="targetPoint" />
          </mxGeometry>
        </mxCell>
        <mxCell id="mZ65AMoEYcW4n1ilk7vc-68" value="&lt;font style=&quot;font-size: 14px;&quot; face=&quot;Times New Roman&quot;&gt;&lt;b&gt;Input&amp;nbsp;&lt;br&gt;Signal&lt;/b&gt;&lt;/font&gt;" style="text;html=1;align=center;verticalAlign=middle;whiteSpace=wrap;rounded=0;" vertex="1" parent="1">
          <mxGeometry x="220" y="260" width="60" height="30" as="geometry" />
        </mxCell>
        <mxCell id="mZ65AMoEYcW4n1ilk7vc-69" value="&lt;b style=&quot;border-color: var(--border-color); font-family: &amp;quot;Times New Roman&amp;quot;; font-size: 14px;&quot;&gt;prompt&lt;/b&gt;" style="text;html=1;align=center;verticalAlign=middle;whiteSpace=wrap;rounded=0;" vertex="1" parent="1">
          <mxGeometry x="435" y="360" width="60" height="30" as="geometry" />
        </mxCell>
        <mxCell id="mZ65AMoEYcW4n1ilk7vc-70" value="&lt;b style=&quot;border-color: var(--border-color); color: rgb(0, 0, 0); font-family: &amp;quot;Times New Roman&amp;quot;; font-size: 14px; font-style: normal; font-variant-ligatures: normal; font-variant-caps: normal; letter-spacing: normal; orphans: 2; text-align: center; text-indent: 0px; text-transform: none; widows: 2; word-spacing: 0px; -webkit-text-stroke-width: 0px; background-color: rgb(251, 251, 251); text-decoration-thickness: initial; text-decoration-style: initial; text-decoration-color: initial;&quot;&gt;carrier frequency&lt;/b&gt;" style="text;whiteSpace=wrap;html=1;" vertex="1" parent="1">
          <mxGeometry x="430" y="210" width="120" height="40" as="geometry" />
        </mxCell>
        <mxCell id="mZ65AMoEYcW4n1ilk7vc-71" value="&lt;b&gt;&lt;font style=&quot;font-size: 14px;&quot; face=&quot;Times New Roman&quot;&gt;ACCUMULATE&lt;/font&gt;&lt;/b&gt;" style="text;html=1;align=center;verticalAlign=middle;whiteSpace=wrap;rounded=0;" vertex="1" parent="1">
          <mxGeometry x="610" y="-35" width="80" height="30" as="geometry" />
        </mxCell>
        <mxCell id="mZ65AMoEYcW4n1ilk7vc-73" value="&lt;font face=&quot;Times New Roman&quot; style=&quot;font-size: 14px;&quot;&gt;&lt;b&gt;SQRT&lt;/b&gt;&lt;/font&gt;" style="text;html=1;align=center;verticalAlign=middle;whiteSpace=wrap;rounded=0;" vertex="1" parent="1">
          <mxGeometry x="820" y="-35" width="60" height="30" as="geometry" />
        </mxCell>
        <mxCell id="mZ65AMoEYcW4n1ilk7vc-74" value="&lt;font face=&quot;Times New Roman&quot; style=&quot;font-size: 14px;&quot;&gt;&lt;b&gt;SQRT&lt;/b&gt;&lt;/font&gt;" style="text;html=1;align=center;verticalAlign=middle;whiteSpace=wrap;rounded=0;" vertex="1" parent="1">
          <mxGeometry x="820" y="125" width="60" height="30" as="geometry" />
        </mxCell>
        <mxCell id="mZ65AMoEYcW4n1ilk7vc-75" value="&lt;font face=&quot;Times New Roman&quot; style=&quot;font-size: 14px;&quot;&gt;&lt;b&gt;Early/Delay Select&lt;/b&gt;&lt;/font&gt;" style="text;html=1;align=center;verticalAlign=middle;whiteSpace=wrap;rounded=0;" vertex="1" parent="1">
          <mxGeometry x="674.5" y="45" width="125" height="30" as="geometry" />
        </mxCell>
        <mxCell id="mZ65AMoEYcW4n1ilk7vc-76" value="&lt;font face=&quot;Times New Roman&quot; style=&quot;font-size: 14px;&quot;&gt;&lt;b&gt;Early&lt;/b&gt;&lt;/font&gt;" style="text;html=1;align=center;verticalAlign=middle;whiteSpace=wrap;rounded=0;" vertex="1" parent="1">
          <mxGeometry x="520" y="15" width="60" height="30" as="geometry" />
        </mxCell>
        <mxCell id="mZ65AMoEYcW4n1ilk7vc-77" value="&lt;font face=&quot;Times New Roman&quot; style=&quot;font-size: 14px;&quot;&gt;&lt;b&gt;Late&lt;/b&gt;&lt;/font&gt;" style="text;html=1;align=center;verticalAlign=middle;whiteSpace=wrap;rounded=0;" vertex="1" parent="1">
          <mxGeometry x="520" y="75" width="60" height="30" as="geometry" />
        </mxCell>
        <mxCell id="mZ65AMoEYcW4n1ilk7vc-78" value="&lt;font face=&quot;Times New Roman&quot; style=&quot;font-size: 14px;&quot;&gt;&lt;b&gt;LPF&lt;/b&gt;&lt;/font&gt;" style="text;html=1;align=center;verticalAlign=middle;whiteSpace=wrap;rounded=0;" vertex="1" parent="1">
          <mxGeometry x="680" y="455" width="60" height="30" as="geometry" />
        </mxCell>
        <mxCell id="mZ65AMoEYcW4n1ilk7vc-79" value="&lt;font face=&quot;Times New Roman&quot; style=&quot;font-size: 14px;&quot;&gt;&lt;b&gt;LPF&lt;/b&gt;&lt;/font&gt;" style="text;html=1;align=center;verticalAlign=middle;whiteSpace=wrap;rounded=0;" vertex="1" parent="1">
          <mxGeometry x="680" y="615" width="60" height="30" as="geometry" />
        </mxCell>
        <mxCell id="mZ65AMoEYcW4n1ilk7vc-80" value="&lt;div&gt;&lt;font face=&quot;Times New Roman&quot;&gt;&lt;b&gt;&lt;font style=&quot;font-size: 14px;&quot;&gt;LOOP&lt;/font&gt;&lt;/b&gt;&lt;/font&gt;&lt;/div&gt;&lt;div&gt;&lt;font style=&quot;font-size: 14px;&quot; face=&quot;Times New Roman&quot;&gt;&lt;b&gt;FILTER&lt;/b&gt;&lt;b&gt;&lt;br&gt;&lt;/b&gt;&lt;/font&gt;&lt;/div&gt;" style="text;html=1;align=center;verticalAlign=middle;whiteSpace=wrap;rounded=0;" vertex="1" parent="1">
          <mxGeometry x="790" y="535" width="60" height="30" as="geometry" />
        </mxCell>
        <mxCell id="mZ65AMoEYcW4n1ilk7vc-81" value="&lt;font face=&quot;Times New Roman&quot; style=&quot;font-size: 14px;&quot;&gt;&lt;b&gt;NCO&lt;/b&gt;&lt;/font&gt;" style="text;html=1;align=center;verticalAlign=middle;whiteSpace=wrap;rounded=0;" vertex="1" parent="1">
          <mxGeometry x="640" y="535" width="60" height="30" as="geometry" />
        </mxCell>
        <mxCell id="mZ65AMoEYcW4n1ilk7vc-82" value="&lt;font face=&quot;Times New Roman&quot; style=&quot;font-size: 14px;&quot;&gt;&lt;b&gt;ATAN&lt;/b&gt;&lt;/font&gt;" style="text;html=1;align=center;verticalAlign=middle;whiteSpace=wrap;rounded=0;" vertex="1" parent="1">
          <mxGeometry x="950" y="490" width="60" height="30" as="geometry" />
        </mxCell>
        <mxCell id="mZ65AMoEYcW4n1ilk7vc-83" value="&lt;font face=&quot;Times New Roman&quot; style=&quot;font-size: 14px;&quot;&gt;&lt;b&gt;Output&lt;/b&gt;&lt;/font&gt;" style="text;html=1;align=center;verticalAlign=middle;whiteSpace=wrap;rounded=0;" vertex="1" parent="1">
          <mxGeometry x="1050" y="455" width="60" height="30" as="geometry" />
        </mxCell>
        <mxCell id="mZ65AMoEYcW4n1ilk7vc-84" value="&lt;font style=&quot;font-size: 18px;&quot; face=&quot;Times New Roman&quot;&gt;&lt;b&gt;CODE LOOP&lt;/b&gt;&lt;/font&gt;" style="text;html=1;align=center;verticalAlign=middle;whiteSpace=wrap;rounded=0;" vertex="1" parent="1">
          <mxGeometry x="670" y="-110" width="110" height="30" as="geometry" />
        </mxCell>
        <mxCell id="mZ65AMoEYcW4n1ilk7vc-85" value="&lt;font style=&quot;font-size: 18px;&quot; face=&quot;Times New Roman&quot;&gt;&lt;b&gt;CARRIER LOOP&lt;/b&gt;&lt;/font&gt;" style="text;html=1;align=center;verticalAlign=middle;whiteSpace=wrap;rounded=0;" vertex="1" parent="1">
          <mxGeometry x="670" y="380" width="170" height="30" as="geometry" />
        </mxCell>
        <mxCell id="mZ65AMoEYcW4n1ilk7vc-87" value="" style="shape=or;whiteSpace=wrap;html=1;fillColor=#000000;strokeColor=#FFFFFF;strokeWidth=6;" vertex="1" parent="1">
          <mxGeometry x="997.5" y="43.75" width="25" height="32.5" as="geometry" />
        </mxCell>
        <mxCell id="mZ65AMoEYcW4n1ilk7vc-88" value="" style="shape=or;whiteSpace=wrap;html=1;fillColor=#000000;strokeColor=#FFFFFF;strokeWidth=6;" vertex="1" parent="1">
          <mxGeometry x="937.5" y="534" width="25" height="32.5" as="geometry" />
        </mxCell>
        <mxCell id="mZ65AMoEYcW4n1ilk7vc-91" value="&lt;b&gt;&lt;font style=&quot;font-size: 14px;&quot; face=&quot;Times New Roman&quot;&gt;ACCUMULATE&lt;/font&gt;&lt;/b&gt;" style="text;html=1;align=center;verticalAlign=middle;whiteSpace=wrap;rounded=0;" vertex="1" parent="1">
          <mxGeometry x="610" y="125" width="80" height="30" as="geometry" />
        </mxCell>
      </root>
    </mxGraphModel>
  </diagram>
  <diagram name="Page-2" id="RgSgK_gO09uSspyrCKrA">
    <mxGraphModel grid="1" page="1" gridSize="10" guides="1" tooltips="1" connect="1" arrows="1" fold="1" pageScale="1" pageWidth="827" pageHeight="1169" math="0" shadow="0">
      <root>
        <mxCell id="0" />
        <mxCell id="1" parent="0" />
        <mxCell id="TEyKKUffehQr-uZDu1Bb-1" value="" style="rounded=0;whiteSpace=wrap;html=1;strokeWidth=3;" vertex="1" parent="1">
          <mxGeometry x="160" y="250" width="160" height="60" as="geometry" />
        </mxCell>
        <mxCell id="TEyKKUffehQr-uZDu1Bb-2" value="" style="rounded=0;whiteSpace=wrap;html=1;strokeWidth=3;" vertex="1" parent="1">
          <mxGeometry x="400" y="250" width="160" height="60" as="geometry" />
        </mxCell>
        <mxCell id="TEyKKUffehQr-uZDu1Bb-3" value="" style="rounded=0;whiteSpace=wrap;html=1;strokeWidth=3;" vertex="1" parent="1">
          <mxGeometry x="630" y="250" width="160" height="60" as="geometry" />
        </mxCell>
        <mxCell id="TEyKKUffehQr-uZDu1Bb-4" value="" style="rounded=0;whiteSpace=wrap;html=1;strokeWidth=3;" vertex="1" parent="1">
          <mxGeometry x="-80" y="250" width="160" height="60" as="geometry" />
        </mxCell>
        <mxCell id="TEyKKUffehQr-uZDu1Bb-5" value="" style="endArrow=classic;html=1;rounded=0;exitX=1;exitY=0.5;exitDx=0;exitDy=0;entryX=0;entryY=0.5;entryDx=0;entryDy=0;strokeWidth=3;" edge="1" parent="1" source="TEyKKUffehQr-uZDu1Bb-4" target="TEyKKUffehQr-uZDu1Bb-1">
          <mxGeometry width="50" height="50" relative="1" as="geometry">
            <mxPoint x="310" y="290" as="sourcePoint" />
            <mxPoint x="360" y="240" as="targetPoint" />
          </mxGeometry>
        </mxCell>
        <mxCell id="TEyKKUffehQr-uZDu1Bb-6" value="" style="endArrow=classic;html=1;rounded=0;exitX=1;exitY=0.5;exitDx=0;exitDy=0;entryX=0;entryY=0.5;entryDx=0;entryDy=0;strokeWidth=3;" edge="1" parent="1">
          <mxGeometry width="50" height="50" relative="1" as="geometry">
            <mxPoint x="320" y="279.5" as="sourcePoint" />
            <mxPoint x="400" y="279.5" as="targetPoint" />
          </mxGeometry>
        </mxCell>
        <mxCell id="TEyKKUffehQr-uZDu1Bb-7" value="" style="endArrow=classic;html=1;rounded=0;exitX=1;exitY=0.5;exitDx=0;exitDy=0;entryX=0;entryY=0.5;entryDx=0;entryDy=0;strokeWidth=3;" edge="1" parent="1" target="TEyKKUffehQr-uZDu1Bb-3">
          <mxGeometry width="50" height="50" relative="1" as="geometry">
            <mxPoint x="560" y="279.5" as="sourcePoint" />
            <mxPoint x="610" y="280" as="targetPoint" />
          </mxGeometry>
        </mxCell>
        <mxCell id="TEyKKUffehQr-uZDu1Bb-8" value="" style="endArrow=classic;html=1;rounded=0;exitX=1;exitY=0.5;exitDx=0;exitDy=0;strokeWidth=3;" edge="1" parent="1" source="TEyKKUffehQr-uZDu1Bb-3">
          <mxGeometry width="50" height="50" relative="1" as="geometry">
            <mxPoint x="480" y="380" as="sourcePoint" />
            <mxPoint x="870" y="280" as="targetPoint" />
          </mxGeometry>
        </mxCell>
        <mxCell id="TEyKKUffehQr-uZDu1Bb-10" value="" style="edgeStyle=elbowEdgeStyle;elbow=vertical;endArrow=classic;html=1;curved=0;rounded=0;endSize=8;startSize=8;entryX=0.5;entryY=0;entryDx=0;entryDy=0;strokeWidth=3;" edge="1" parent="1" target="TEyKKUffehQr-uZDu1Bb-4">
          <mxGeometry width="50" height="50" relative="1" as="geometry">
            <mxPoint x="830" y="280" as="sourcePoint" />
            <mxPoint x="440" y="210" as="targetPoint" />
            <Array as="points">
              <mxPoint x="420" y="200" />
            </Array>
          </mxGeometry>
        </mxCell>
        <mxCell id="TEyKKUffehQr-uZDu1Bb-11" value="" style="edgeStyle=segmentEdgeStyle;endArrow=classic;html=1;curved=0;rounded=0;endSize=8;startSize=8;strokeWidth=3;" edge="1" parent="1">
          <mxGeometry width="50" height="50" relative="1" as="geometry">
            <mxPoint x="360" y="280" as="sourcePoint" />
            <mxPoint x="862" y="350" as="targetPoint" />
            <Array as="points">
              <mxPoint x="360" y="350" />
              <mxPoint x="862" y="350" />
            </Array>
          </mxGeometry>
        </mxCell>
        <mxCell id="TEyKKUffehQr-uZDu1Bb-12" value="" style="rounded=1;whiteSpace=wrap;html=1;dashed=1;fillColor=none;strokeWidth=3;" vertex="1" parent="1">
          <mxGeometry x="-110" y="170" width="450" height="190" as="geometry" />
        </mxCell>
        <mxCell id="TEyKKUffehQr-uZDu1Bb-13" value="" style="endArrow=classic;html=1;rounded=0;entryX=0.067;entryY=0.579;entryDx=0;entryDy=0;entryPerimeter=0;strokeWidth=3;" edge="1" parent="1" target="TEyKKUffehQr-uZDu1Bb-12">
          <mxGeometry width="50" height="50" relative="1" as="geometry">
            <mxPoint x="-180" y="280" as="sourcePoint" />
            <mxPoint x="400" y="240" as="targetPoint" />
          </mxGeometry>
        </mxCell>
        <mxCell id="TEyKKUffehQr-uZDu1Bb-14" value="&lt;font face=&quot;Times New Roman&quot; style=&quot;font-size: 14px;&quot;&gt;&lt;b&gt;Combiner&lt;/b&gt;&lt;/font&gt;" style="text;html=1;align=center;verticalAlign=middle;whiteSpace=wrap;rounded=0;" vertex="1" parent="1">
          <mxGeometry x="-30" y="265" width="60" height="30" as="geometry" />
        </mxCell>
        <mxCell id="TEyKKUffehQr-uZDu1Bb-15" value="&lt;font style=&quot;font-size: 14px;&quot; face=&quot;Times New Roman&quot;&gt;&lt;b&gt;Discriminator&lt;/b&gt;&lt;/font&gt;" style="text;html=1;align=center;verticalAlign=middle;whiteSpace=wrap;rounded=0;" vertex="1" parent="1">
          <mxGeometry x="210" y="265" width="70" height="30" as="geometry" />
        </mxCell>
        <mxCell id="TEyKKUffehQr-uZDu1Bb-16" value="&lt;font style=&quot;font-size: 14px;&quot; face=&quot;Times New Roman&quot;&gt;&lt;b&gt;Loop Filter&lt;/b&gt;&lt;/font&gt;" style="text;html=1;align=center;verticalAlign=middle;whiteSpace=wrap;rounded=0;" vertex="1" parent="1">
          <mxGeometry x="440" y="265" width="80" height="30" as="geometry" />
        </mxCell>
        <mxCell id="TEyKKUffehQr-uZDu1Bb-17" value="&lt;font style=&quot;font-size: 14px;&quot; face=&quot;Times New Roman&quot;&gt;&lt;b&gt;Integrator (NCO)&lt;/b&gt;&lt;/font&gt;" style="text;html=1;align=center;verticalAlign=middle;whiteSpace=wrap;rounded=0;" vertex="1" parent="1">
          <mxGeometry x="670" y="265" width="80" height="30" as="geometry" />
        </mxCell>
        <mxCell id="TEyKKUffehQr-uZDu1Bb-18" value="&lt;font style=&quot;font-size: 14px;&quot; face=&quot;Times New Roman&quot;&gt;&lt;b&gt;Error estimator&lt;/b&gt;&lt;/font&gt;" style="text;html=1;align=center;verticalAlign=middle;whiteSpace=wrap;rounded=0;" vertex="1" parent="1">
          <mxGeometry x="70" y="320" width="120" height="30" as="geometry" />
        </mxCell>
        <mxCell id="TEyKKUffehQr-uZDu1Bb-19" value="&lt;font style=&quot;font-size: 14px;&quot; face=&quot;Times New Roman&quot;&gt;&lt;b&gt;Input&lt;br&gt;signal&lt;/b&gt;&lt;/font&gt;" style="text;html=1;align=center;verticalAlign=middle;whiteSpace=wrap;rounded=0;" vertex="1" parent="1">
          <mxGeometry x="-200" y="235" width="60" height="30" as="geometry" />
        </mxCell>
        <mxCell id="TEyKKUffehQr-uZDu1Bb-20" value="&lt;font face=&quot;Times New Roman&quot;&gt;&lt;span style=&quot;font-size: 14px;&quot;&gt;&lt;b&gt;Estimate&lt;/b&gt;&lt;/span&gt;&lt;/font&gt;" style="text;html=1;align=center;verticalAlign=middle;whiteSpace=wrap;rounded=0;" vertex="1" parent="1">
          <mxGeometry x="870" y="265" width="60" height="30" as="geometry" />
        </mxCell>
        <mxCell id="TEyKKUffehQr-uZDu1Bb-22" value="" style="edgeStyle=orthogonalEdgeStyle;rounded=0;orthogonalLoop=1;jettySize=auto;html=1;" edge="1" parent="1" source="TEyKKUffehQr-uZDu1Bb-21" target="TEyKKUffehQr-uZDu1Bb-20">
          <mxGeometry relative="1" as="geometry" />
        </mxCell>
        <mxCell id="TEyKKUffehQr-uZDu1Bb-21" value="&lt;font face=&quot;Times New Roman&quot;&gt;&lt;span style=&quot;font-size: 14px;&quot;&gt;&lt;b&gt;Error&lt;/b&gt;&lt;/span&gt;&lt;/font&gt;" style="text;html=1;align=center;verticalAlign=middle;whiteSpace=wrap;rounded=0;" vertex="1" parent="1">
          <mxGeometry x="870" y="340" width="60" height="30" as="geometry" />
        </mxCell>
      </root>
    </mxGraphModel>
  </diagram>
</mxfile>
